<svg width="24" height="24" viewBox="0 0 24 24" fill="none" xmlns="http://www.w3.org/2000/svg">
<path fill-rule="evenodd" clip-rule="evenodd" d="M12.8376 2.45523C12.6532 2.17135 12.3377 2.00004 11.9991 2C11.6606 1.99996 11.345 2.17118 11.1606 2.45501L5.96056 10.455C5.94249 10.4828 5.92593 10.5113 5.91088 10.5404C5.31214 11.5948 4.99744 12.7869 4.998 14C4.99857 15.2284 5.32238 16.435 5.9369 17.4987C6.55142 18.5623 7.43502 19.4455 8.49893 20.0595C9.56285 20.6735 10.7696 20.9968 11.998 20.9968C13.2264 20.9968 14.4332 20.6735 15.4971 20.0595C16.561 19.4455 17.4446 18.5623 18.0591 17.4987C18.662 16.4551 18.9851 15.2739 18.9976 14.0695C18.9992 14.0465 19 14.0234 19 14C19 13.977 18.9992 13.9542 18.9977 13.9316C18.9865 12.7268 18.6645 11.545 18.0623 10.5005C18.0535 10.4852 18.0442 10.4701 18.0346 10.4552L12.8376 2.45523ZM16.8976 13C16.7924 12.4829 16.6056 11.9836 16.3423 11.5215L11.9988 4.83527L7.66096 11.5088C7.39384 11.9744 7.20454 12.4781 7.09837 13H16.8976ZM7.09968 15C7.20712 15.5246 7.39858 16.0307 7.66864 16.4981C8.10759 17.2579 8.73873 17.8887 9.49867 18.3273C10.2586 18.7659 11.1206 18.9968 11.998 18.9968C12.8754 18.9968 13.7374 18.7659 14.4973 18.3273C15.2573 17.8887 15.8884 17.2579 16.3274 16.4981C16.5974 16.0307 16.7889 15.5246 16.8963 15H7.09968Z" fill="black"/>
</svg>
